# xmcd
#
# Track frame offsets:
#	150
#	10082
#	22767
#	32552
#	40912
#	54102
#	63397
#	78200
#	91950
#	104382
#	114122
#	128770
#	140312
#	152847
#	164602
#	174515
#	183252
#	195455
#
# Disc length: 2713 seconds
#
# Revision: 0
# Processed by: cddbd v1.4PL0 Copyright (c) Steve Scherf et al.
# Submitted via: EZCDDA 4.3.3.2
#
DISCID=d00a9712
DTITLE=Willie Nelson - Face of a Fighter
DYEAR=1900
DGENRE=
TTITLE0=Broken Promises
TTITLE1=I Just Don't Understand
TTITLE2=I didn't sleep a wink
TTITLE3=Slow Down Old World
TTITLE4=You'll always have someone
TTITLE5=One Step Beyond
TTITLE6=And so will you my love
TTITLE7=Home is where you're happy
TTITLE8=Shelter of your arms
TTITLE9=Ashamed
TTITLE10=The face of a fighter
TTITLE11=I Hope So
TTITLE12=Any old arms won't do
TTITLE13=End of understanding
TTITLE14=Healing Hands of Time
TTITLE15=Why are you picking on me
TTITLE16=I can't find the time
TTITLE17=Things to remember
EXTD=
EXTT0=
EXTT1=
EXTT2=
EXTT3=
EXTT4=
EXTT5=
EXTT6=
EXTT7=
EXTT8=
EXTT9=
EXTT10=
EXTT11=
EXTT12=
EXTT13=
EXTT14=
EXTT15=
EXTT16=
EXTT17=
PLAYORDER=
